<?xml version="1.0" encoding="UTF-8" standalone="no"?>
<!-- Created with Inkscape (http://www.inkscape.org/) -->

<svg
   xmlns:dc="http://purl.org/dc/elements/1.1/"
   xmlns:cc="http://creativecommons.org/ns#"
   xmlns:rdf="http://www.w3.org/1999/02/22-rdf-syntax-ns#"
   xmlns:svg="http://www.w3.org/2000/svg"
   xmlns="http://www.w3.org/2000/svg"
   xmlns:sodipodi="http://sodipodi.sourceforge.net/DTD/sodipodi-0.dtd"
   xmlns:inkscape="http://www.inkscape.org/namespaces/inkscape"
   width="367.14001"
   height="367.13998"
   viewBox="0 0 367.14001 367.13998"
   version="1.1"
   id="svg2216"
   inkscape:version="0.92.3 (2405546, 2018-03-11)"
   sodipodi:docname="circle.svg">
  <defs
     id="defs2210" />
  <sodipodi:namedview
     id="base"
     pagecolor="#ffffff"
     bordercolor="#666666"
     borderopacity="1.0"
     inkscape:pageopacity="0.0"
     inkscape:pageshadow="2"
     inkscape:zoom="1.4"
     inkscape:cx="128.40776"
     inkscape:cy="196.06567"
     inkscape:document-units="px"
     inkscape:current-layer="layer1"
     showgrid="false"
     units="px"
     inkscape:window-width="1280"
     inkscape:window-height="737"
     inkscape:window-x="-8"
     inkscape:window-y="-8"
     inkscape:window-maximized="1"
     fit-margin-top="10"
     fit-margin-left="10"
     fit-margin-bottom="10"
     fit-margin-right="10"
     inkscape:showpageshadow="false"
     scale-x="1" />
  <metadata
     id="metadata2213">
    <rdf:RDF>
      <cc:Work
         rdf:about="">
        <dc:format>image/svg+xml</dc:format>
        <dc:type
           rdf:resource="http://purl.org/dc/dcmitype/StillImage" />
        <dc:title></dc:title>
      </cc:Work>
    </rdf:RDF>
  </metadata>
  <g
     inkscape:label="Layer 1"
     inkscape:groupmode="layer"
     id="layer1"
     transform="translate(283.10502,-116.23671)">
    

<g
       id="g853"
       style="font-style:normal;font-variant:normal;font-weight:normal;font-stretch:normal;font-size:37.33333206px;line-height:1.25;font-family:'Open Sans';-inkscape-font-specification:'Open Sans, Normal';font-variant-ligatures:normal;font-variant-caps:normal;font-variant-numeric:normal;font-feature-settings:normal;text-align:start;letter-spacing:0px;word-spacing:0px;writing-mode:lr-tb;text-anchor:start;fill:#ffffff;fill-opacity:1;stroke:none"
       aria-label="w"
       transform="matrix(1.9818272,0,0,2.0877907,1149.6027,-267.02867)">
      <path
         sodipodi:nodetypes="ccccccccccccccccccc"
         inkscape:connector-curvature="0"
         id="path851"
         style="font-style:normal;font-variant:normal;font-weight:normal;font-stretch:normal;font-size:333.33334351px;font-family:Monogramus;-inkscape-font-specification:Monogramus;fill:#ffffff;fill-opacity:1"
         d="m -679.96356,305.0924 -7.34638,-4.87487 -0.32029,-40.45846 0.38434,-17.78562 14.61566,-9.3409 v 17.12652 21.66667 l 9.66667,-12.66667 9.66667,24.33333 v -1 -4 -15 -28.66666 -15.2632 l 15.31537,-10.19795 -0.17588,124.33791 -14.92123,-10.04953 -13.88493,-34.4939 z" />
    </g>



<g
       transform="matrix(1.9854797,0,0,2.083868,927.09856,-266.13733)"
       aria-label="p"
       style="font-style:normal;font-variant:normal;font-weight:normal;font-stretch:normal;font-size:37.33333206px;line-height:1.25;font-family:'Open Sans';-inkscape-font-specification:'Open Sans, Normal';font-variant-ligatures:normal;font-variant-caps:normal;font-variant-numeric:normal;font-feature-settings:normal;text-align:start;letter-spacing:0px;word-spacing:0px;writing-mode:lr-tb;text-anchor:start;fill:#ffffff;fill-opacity:1;stroke:none"
       id="g857">
      <path
         d="m -460.31543,242.01539 -0.31479,16.41035 v 16.33333 l -13.33333,18.33333 h -21.00001 v 14 l 0.0935,16.09176 -15.0935,9.90825 -0.12591,-124.0934 z m -34.64813,36.41035 h 13.33334 l 6,-8.66667 v -5 -14.66667 c -3.11111,-2.88889 -6.33334,-5.55555 -9.66667,-8 -3.11111,-2.44444 -6.33333,-4.88888 -9.66667,-7.33333 v 28.66667 z"
         style="font-style:normal;font-variant:normal;font-weight:normal;font-stretch:normal;font-size:333.33334351px;font-family:Monogramus;-inkscape-font-specification:Monogramus;fill:#ffffff;fill-opacity:1"
         id="path855"
         inkscape:connector-curvature="0"
         sodipodi:nodetypes="ccccccccccccccccccc" />
    </g>




    <path
       style="fill:#7eacdd;fill-opacity:1;fill-rule:evenodd;stroke-width:1.06112659"
       d="m -99.535018,126.23671 a 173.57001,173.57001 0 0 0 -173.570002,173.56998 173.57001,173.57001 0 0 0 173.570002,173.56999 173.57001,173.57001 0 0 0 173.57,-173.56999 173.57001,173.57001 0 0 0 -173.57,-173.56998 z m 0,10.84808 A 162.72188,162.72188 0 0 1 63.186852,299.80669 162.72188,162.72188 0 0 1 -99.535018,462.52856 162.72188,162.72188 0 0 1 -262.25689,299.80669 162.72188,162.72188 0 0 1 -99.535018,137.08479 Z"
       id="path12"
       inkscape:connector-curvature="0" />
  </g>
</svg>
